<?xml version="1.0" encoding="utf-8"?>
<svg version="1.1" xmlns="http://www.w3.org/2000/svg" width="510px" height="510px" viewBox="0 0 510 510" xml:space="preserve">
    <g>
        <rect x="-14.5" y="-19.5" fill="#BC0000" width="540" height="543" />
        <path fill="#FFFFFF" d="M194.525,226.975l-20.649,20.65L240.251,314l147.5-147.5L367.1,145.85L240.25,272.7L194.525,226.975z
             M373,255c0,64.9-53.1,118-118,118c-64.9,0-118-53.1-118-118c0-64.9,53.1-118,118-118c11.8,0,22.126,1.475,32.45,4.424
            l23.601-23.6C293.35,111.925,274.176,107.5,255,107.5c-81.125,0-147.5,66.375-147.5,147.5S173.875,402.5,255,402.5
            S402.5,336.125,402.5,255H373z" />
    </g>
</svg>
