<?xml version="1.0" encoding="utf-8"?>
<svg version="1.1" xmlns="http://www.w3.org/2000/svg" width="150px" height="150px" viewBox="0 0 150 150" xml:space="preserve">
    <g>
        <rect x="0" y="0" width="150" fill="#BC0000" height="150" />
        <path fill="#FFFFFF" d="M 57.214844 66.757812 L 51.140625 72.832031 L 70.660156 92.351562 L 114.042969 48.96875 L 107.96875 42.898438 L 70.660156 80.207031 Z M 109.707031 75 C 109.707031 94.089844 94.089844 109.707031 75 109.707031 C 55.910156 109.707031 40.292969 94.089844 40.292969 75 C 40.292969 55.910156 55.910156 40.292969 75 40.292969 C 78.46875 40.292969 81.507812 40.726562 84.542969 41.59375 L 91.484375 34.652344 C 86.28125 32.917969 80.640625 31.617188 75 31.617188 C 51.140625 31.617188 31.617188 51.140625 31.617188 75 C 31.617188 98.859375 51.140625 118.382812 75 118.382812 C 98.859375 118.382812 118.382812 98.859375 118.382812 75 Z M 109.707031 75" />
    </g>
</svg>
