<?xml version="1.0" encoding="utf-8"?>
<svg version="1.1" xmlns="http://www.w3.org/2000/svg" width="510px" height="510px" viewBox="0 0 510 510" xml:space="preserve">
    <g>
        <path d="M167.055,214.245l-30.03,30.03L233.55,340.8l214.5-214.5l-30.03-30.03L233.55,280.739L167.055,214.245z M426.6,255
            c0,94.38-77.22,171.6-171.6,171.6c-94.38,0-171.6-77.22-171.6-171.6c0-94.38,77.22-171.6,171.6-171.6
            c17.16,0,32.175,2.145,47.189,6.435l34.322-34.32C310.77,46.935,282.886,40.5,255,40.5C137.025,40.5,40.5,137.025,40.5,255
            c0,117.975,96.525,214.5,214.5,214.5c117.975,0,214.5-96.525,214.5-214.5H426.6z" />
    </g>
</svg>
