<svg xmlns="http://www.w3.org/2000/svg" viewBox="0 0 16 16">
    <path d="m4,3l10,0l0,12l-10,0l0,-12z" fill="#FFF"/>
    <path d="m4,3l0,12l10,0l0,-12l-10,0zm1,1l8,0l0,10l-8,0l0,-10z" fill="#666"/>
    <path d="m5,4l8,0l0,1l-8,0l0,-1z" fill="#999"/>
    <path d="m2,1l1,0l0,1l-1,0l0,-1zm0,2l1,0l0,1l-1,0l0,-1zm0,2l1,0l0,1l-1,0l0,-1zm0,2l1,0l0,1l-1,0l0,-1zm0,2l1,0l0,1l-1,0l0,-1zm0,2l1,0l0,1l-1,0l0,-1zm2,-10l1,0l0,1l-1,0l0,-1zm2,0l1,0l0,1l-1,0l0,-1zm2,0l1,0l0,1l-1,0l0,-1zm2,0l1,0l0,1l-1,0l0,-1z" fill="#B9B9B9"/>
    <path stroke="null" d="m7.8101,8.90821l-0.40233,0.40233l1.29322,1.29322l2.87381,-2.87381l-0.40233,-0.40233l-2.47148,2.47147l-0.89088,-0.89087zm3.47731,0.54602c0,1.26448 -1.03457,2.29905 -2.29905,2.29905c-1.26448,0 -2.29905,-1.03457 -2.29905,-2.29905c0,-1.26448 1.03457,-2.29905 2.29905,-2.29905c0.22991,0 0.43107,0.02874 0.63223,0.08621l0.45984,-0.45981c-0.34487,-0.11495 -0.71845,-0.20117 -1.09206,-0.20117c-1.5806,0 -2.87381,1.29322 -2.87381,2.87381c0,1.5806 1.29322,2.87381 2.87381,2.87381c1.5806,0 2.87381,-1.29322 2.87381,-2.87381l-0.57476,0z"/>
</svg>
